# This file uses centimeters as units for non-parametric coordinates.

mtllib Top.mtl
g default
v 0.000000 4.983871 0.741935
v 0.000000 3.467742 13.548388
v -13.548388 3.467742 0.000000
v -0.741935 4.983871 0.000000
v -9.580156 3.467742 9.580156
v -0.524628 4.983871 0.524628
v -5.184743 3.467742 12.517077
v -0.283926 4.983871 0.685459
v -2.643159 3.467742 13.288058
v -0.144744 4.983871 0.727679
v -0.885388 3.467742 13.519338
v -0.048486 4.983871 0.740345
v 0.000000 4.241935 2.064516
v -0.134916 4.241935 2.060090
v 0.000000 3.532258 3.741935
v -0.244536 3.532258 3.733912
v -0.402767 4.241935 2.024847
v -0.096815 4.983871 0.735586
v -0.269399 4.241935 2.046848
v -1.767933 3.467742 13.432437
v -0.488286 3.532258 3.709911
v -0.730015 3.532258 3.670035
v -3.506758 3.467742 13.086698
v -0.192037 4.983871 0.716652
v -0.534363 4.241935 1.994163
v -0.968533 3.532258 3.614421
v -0.790056 4.241935 1.907364
v -0.238494 4.983871 0.702559
v -0.663635 4.241935 1.954946
v -4.355105 3.467742 12.829335
v -1.202839 3.532258 3.543340
v -1.431977 3.532258 3.457098
v -7.527081 3.467742 11.265072
v -0.412197 4.983871 0.616897
v -5.992226 3.467742 12.151143
v -0.328146 4.983871 0.665420
v -0.913101 4.241935 1.851603
v -1.654996 3.532258 3.356030
v -1.146984 4.241935 1.716582
v -0.370965 4.983871 0.642533
v -1.032250 4.241935 1.787918
v -6.774140 3.467742 11.733211
v -1.870953 3.532258 3.240601
v -2.078908 3.532258 3.111306
v -8.247722 3.467742 10.748624
v -0.451661 4.983871 0.588615
v -1.256796 4.241935 1.637886
v -2.277942 3.532258 2.968668
v -1.459833 4.241935 1.459833
v -0.489191 4.983871 0.557815
v -1.361228 4.241935 1.552180
v -8.933056 3.467742 10.186180
v -2.467225 3.532258 2.813326
v -2.645948 3.532258 2.645948
v -12.517077 3.467742 5.184743
v -0.685459 4.983871 0.283926
v -11.265072 3.467742 7.527081
v -0.616897 4.983871 0.412197
v -10.186180 3.467742 8.933056
v -0.557815 4.983871 0.489191
v -1.552180 4.241935 1.361228
v -2.813326 3.532258 2.467225
v -1.716582 4.241935 1.146984
v -0.588615 4.983871 0.451661
v -1.637886 4.241935 1.256796
v -10.748624 3.467742 8.247722
v -2.968668 3.532258 2.277942
v -3.111306 3.532258 2.078908
v -11.733211 3.467742 6.774140
v -0.642533 4.983871 0.370965
v -1.787918 4.241935 1.032250
v -3.240601 3.532258 1.870953
v -1.907364 4.241935 0.790056
v -0.665420 4.983871 0.328146
v -1.851603 4.241935 0.913101
v -12.151143 3.467742 5.992226
v -3.356030 3.532258 1.654996
v -3.457098 3.532258 1.431977
v -13.288058 3.467742 2.643159
v -0.727679 4.983871 0.144744
v -12.829335 3.467742 4.355105
v -0.702559 4.983871 0.238494
v -1.954946 4.241935 0.663635
v -3.543340 3.532258 1.202839
v -2.024847 4.241935 0.402767
v -0.716652 4.983871 0.192037
v -1.994163 4.241935 0.534363
v -13.086698 3.467742 3.506758
v -3.614421 3.532258 0.968533
v -3.670035 3.532258 0.730015
v -13.432437 3.467742 1.767933
v -0.735586 4.983871 0.096815
v -2.046848 4.241935 0.269399
v -3.709911 3.532258 0.488286
v -2.064516 4.241935 0.000000
v -0.740345 4.983871 0.048486
v -2.060090 4.241935 0.134916
v -13.519338 3.467742 0.885388
v -3.733912 3.532258 0.244536
v -3.741935 3.532258 0.000000
vt 0.000000 0.000000
vt 1.000000 0.000000
vt 1.000000 1.000000
vt 0.000000 1.000000
vt 1.000000 0.500000
vt 0.000000 0.500000
vt 1.000000 0.250000
vt 0.000000 0.250000
vt 1.000000 0.125000
vt 0.000000 0.125000
vt 1.000000 0.041667
vt 0.000000 0.041667
vt 0.142323 0.000000
vt 0.142323 0.041667
vt 0.349441 0.000000
vt 0.349441 0.041667
vt 0.142323 0.125000
vt 0.000000 0.083333
vt 0.142323 0.083333
vt 1.000000 0.083333
vt 0.349441 0.083333
vt 0.349441 0.125000
vt 1.000000 0.166667
vt 0.000000 0.166667
vt 0.142323 0.166667
vt 0.349441 0.166667
vt 0.142323 0.250000
vt 0.000000 0.208333
vt 0.142323 0.208333
vt 1.000000 0.208333
vt 0.349441 0.208333
vt 0.349441 0.250000
vt 1.000000 0.375000
vt 0.000000 0.375000
vt 1.000000 0.291667
vt 0.000000 0.291667
vt 0.142323 0.291667
vt 0.349441 0.291667
vt 0.142323 0.375000
vt 0.000000 0.333333
vt 0.142323 0.333333
vt 1.000000 0.333333
vt 0.349441 0.333333
vt 0.349441 0.375000
vt 1.000000 0.416667
vt 0.000000 0.416667
vt 0.142323 0.416667
vt 0.349441 0.416667
vt 0.142323 0.500000
vt 0.000000 0.458333
vt 0.142323 0.458333
vt 1.000000 0.458333
vt 0.349441 0.458333
vt 0.349441 0.500000
vt 1.000000 0.750000
vt 0.000000 0.750000
vt 1.000000 0.625000
vt 0.000000 0.625000
vt 1.000000 0.541667
vt 0.000000 0.541667
vt 0.142323 0.541667
vt 0.349441 0.541667
vt 0.142323 0.625000
vt 0.000000 0.583333
vt 0.142323 0.583333
vt 1.000000 0.583333
vt 0.349441 0.583333
vt 0.349441 0.625000
vt 1.000000 0.666667
vt 0.000000 0.666667
vt 0.142323 0.666667
vt 0.349441 0.666667
vt 0.142323 0.750000
vt 0.000000 0.708333
vt 0.142323 0.708333
vt 1.000000 0.708333
vt 0.349441 0.708333
vt 0.349441 0.750000
vt 1.000000 0.875000
vt 0.000000 0.875000
vt 1.000000 0.791667
vt 0.000000 0.791667
vt 0.142323 0.791667
vt 0.349441 0.791667
vt 0.142323 0.875000
vt 0.000000 0.833333
vt 0.142323 0.833333
vt 1.000000 0.833333
vt 0.349441 0.833333
vt 0.349441 0.875000
vt 1.000000 0.916667
vt 0.000000 0.916667
vt 0.142323 0.916667
vt 0.349441 0.916667
vt 0.142323 1.000000
vt 0.000000 0.958333
vt 0.142323 0.958333
vt 1.000000 0.958333
vt 0.349441 0.958333
vt 0.349441 1.000000
vn -0.006565 0.999978 0.000431
vn -0.028293 0.999598 0.001856
vn -0.028350 0.999598 0.000930
vn -0.006579 0.999978 0.000216
vn -0.004338 0.999978 0.004946
vn -0.018694 0.999598 0.021317
vn -0.020047 0.999598 0.020047
vn -0.004652 0.999978 0.004652
vn -0.002115 0.999978 0.006230
vn -0.009114 0.999598 0.026848
vn -0.010851 0.999598 0.026193
vn -0.002518 0.999978 0.006078
vn -0.000858 0.999978 0.006523
vn -0.003699 0.999598 0.028112
vn -0.005529 0.999598 0.027806
vn -0.001283 0.999978 0.006452
vn -0.000930 0.999598 0.028350
vn -0.001856 0.999598 0.028293
vn -0.000431 0.999978 0.006565
vn -0.000216 0.999978 0.006579
vn -0.016051 0.872031 0.489188
vn -0.032019 0.872142 0.488205
vn -0.027355 0.908452 0.417094
vn -0.013713 0.908369 0.417946
vn -0.081514 0.908454 0.409959
vn -0.054527 0.908451 0.414419
vn -0.063823 0.872141 0.485074
vn -0.095412 0.872143 0.479858
vn -0.007338 0.999598 0.027386
vn -0.001703 0.999978 0.006355
vn -0.108185 0.908454 0.403743
vn -0.126630 0.872143 0.472579
vn -0.159971 0.908454 0.386162
vn -0.134362 0.908453 0.395803
vn -0.157270 0.872143 0.463286
vn -0.187246 0.872143 0.452002
vn -0.003289 0.999978 0.005698
vn -0.014176 0.999598 0.024555
vn -0.015751 0.999598 0.023573
vn -0.003655 0.999978 0.005470
vn -0.012541 0.999598 0.025429
vn -0.002910 0.999978 0.005900
vn -0.184884 0.908452 0.374877
vn -0.216405 0.872142 0.438790
vn -0.232215 0.908454 0.347545
vn -0.208981 0.908452 0.361997
vn -0.244610 0.872142 0.423715
vn -0.271808 0.872143 0.406801
vn -0.017261 0.999598 0.022494
vn -0.004005 0.999978 0.005219
vn -0.254462 0.908453 0.331606
vn -0.297846 0.872143 0.388143
vn -0.295560 0.908454 0.295560
vn -0.275592 0.908453 0.314265
vn -0.322578 0.872142 0.367847
vn -0.345953 0.872143 0.345953
vn -0.005900 0.999978 0.002910
vn -0.025429 0.999598 0.012541
vn -0.026193 0.999598 0.010851
vn -0.006078 0.999978 0.002518
vn -0.005219 0.999978 0.004005
vn -0.022493 0.999598 0.017261
vn -0.023573 0.999598 0.015751
vn -0.005470 0.999978 0.003655
vn -0.021317 0.999598 0.018694
vn -0.004946 0.999978 0.004338
vn -0.314266 0.908453 0.275592
vn -0.367846 0.872142 0.322579
vn -0.347545 0.908454 0.232215
vn -0.331606 0.908453 0.254462
vn -0.388143 0.872142 0.297847
vn -0.406801 0.872143 0.271807
vn -0.024555 0.999598 0.014175
vn -0.005698 0.999978 0.003289
vn -0.361997 0.908453 0.208979
vn -0.423715 0.872143 0.244607
vn -0.386162 0.908453 0.159973
vn -0.374877 0.908452 0.184884
vn -0.438791 0.872142 0.216405
vn -0.452002 0.872142 0.187249
vn -0.006355 0.999978 0.001702
vn -0.027386 0.999598 0.007338
vn -0.027806 0.999598 0.005529
vn -0.006452 0.999978 0.001283
vn -0.026848 0.999598 0.009114
vn -0.006230 0.999978 0.002115
vn -0.395803 0.908453 0.134362
vn -0.463285 0.872143 0.157269
vn -0.409960 0.908454 0.081514
vn -0.403743 0.908454 0.108184
vn -0.472579 0.872143 0.126629
vn -0.479857 0.872143 0.095414
vn -0.028112 0.999598 0.003699
vn -0.006523 0.999978 0.000859
vn -0.414419 0.908451 0.054527
vn -0.485073 0.872141 0.063821
vn -0.417945 0.908369 0.013712
vn -0.417094 0.908452 0.027355
vn -0.488205 0.872142 0.032017
vn -0.489188 0.872031 0.016049
s 1
g revolvedSurface1
usemtl initialShadingGroup
f 98/98/1 99/99/2 100/100/3 3/3/4
f 52/52/5 53/53/6 54/54/7 5/5/8
f 30/30/9 31/31/10 32/32/11 7/7/12
f 20/20/13 21/21/14 22/22/15 9/9/16
f 15/15/17 16/16/18 11/11/19 2/2/20
f 1/1/21 12/12/22 14/14/23 13/13/24
f 13/13/24 14/14/23 16/16/18 15/15/17
f 17/17/25 19/19/26 18/18/27 10/10/28
f 18/18/27 19/19/26 14/14/23 12/12/22
f 11/11/19 16/16/18 21/21/14 20/20/13
f 21/21/14 16/16/18 14/14/23 19/19/26
f 22/22/15 21/21/14 19/19/26 17/17/25
f 9/9/16 22/22/15 26/26/29 23/23/30
f 25/25/31 17/17/25 10/10/28 24/24/32
f 26/26/29 22/22/15 17/17/25 25/25/31
f 27/27/33 29/29/34 28/28/35 8/8/36
f 28/28/35 29/29/34 25/25/31 24/24/32
f 23/23/30 26/26/29 31/31/10 30/30/9
f 31/31/10 26/26/29 25/25/31 29/29/34
f 32/32/11 31/31/10 29/29/34 27/27/33
f 42/42/37 43/43/38 44/44/39 33/33/40
f 7/7/12 32/32/11 38/38/41 35/35/42
f 37/37/43 27/27/33 8/8/36 36/36/44
f 38/38/41 32/32/11 27/27/33 37/37/43
f 39/39/45 41/41/46 40/40/47 34/34/48
f 40/40/47 41/41/46 37/37/43 36/36/44
f 35/35/42 38/38/41 43/43/38 42/42/37
f 43/43/38 38/38/41 37/37/43 41/41/46
f 44/44/39 43/43/38 41/41/46 39/39/45
f 33/33/40 44/44/39 48/48/49 45/45/50
f 47/47/51 39/39/45 34/34/48 46/46/52
f 48/48/49 44/44/39 39/39/45 47/47/51
f 49/49/53 51/51/54 50/50/55 6/6/56
f 50/50/55 51/51/54 47/47/51 46/46/52
f 45/45/50 48/48/49 53/53/6 52/52/5
f 53/53/6 48/48/49 47/47/51 51/51/54
f 54/54/7 53/53/6 51/51/54 49/49/53
f 76/76/57 77/77/58 78/78/59 55/55/60
f 66/66/61 67/67/62 68/68/63 57/57/64
f 5/5/8 54/54/7 62/62/65 59/59/66
f 61/61/67 49/49/53 6/6/56 60/60/68
f 62/62/65 54/54/7 49/49/53 61/61/67
f 63/63/69 65/65/70 64/64/71 58/58/72
f 64/64/71 65/65/70 61/61/67 60/60/68
f 59/59/66 62/62/65 67/67/62 66/66/61
f 67/67/62 62/62/65 61/61/67 65/65/70
f 68/68/63 67/67/62 65/65/70 63/63/69
f 57/57/64 68/68/63 72/72/73 69/69/74
f 71/71/75 63/63/69 58/58/72 70/70/76
f 72/72/73 68/68/63 63/63/69 71/71/75
f 73/73/77 75/75/78 74/74/79 56/56/80
f 74/74/79 75/75/78 71/71/75 70/70/76
f 69/69/74 72/72/73 77/77/58 76/76/57
f 77/77/58 72/72/73 71/71/75 75/75/78
f 78/78/59 77/77/58 75/75/78 73/73/77
f 88/88/81 89/89/82 90/90/83 79/79/84
f 55/55/60 78/78/59 84/84/85 81/81/86
f 83/83/87 73/73/77 56/56/80 82/82/88
f 84/84/85 78/78/59 73/73/77 83/83/87
f 85/85/89 87/87/90 86/86/91 80/80/92
f 86/86/91 87/87/90 83/83/87 82/82/88
f 81/81/86 84/84/85 89/89/82 88/88/81
f 89/89/82 84/84/85 83/83/87 87/87/90
f 90/90/83 89/89/82 87/87/90 85/85/89
f 79/79/84 90/90/83 94/94/93 91/91/94
f 93/93/95 85/85/89 80/80/92 92/92/96
f 94/94/93 90/90/83 85/85/89 93/93/95
f 95/95/97 97/97/98 96/96/99 4/4/100
f 96/96/99 97/97/98 93/93/95 92/92/96
f 91/91/94 94/94/93 99/99/2 98/98/1
f 99/99/2 94/94/93 93/93/95 97/97/98
f 100/100/3 99/99/2 97/97/98 95/95/97
